<svg xmlns="http://www.w3.org/2000/svg" width="31" height="34" fill="none"><path fill="#000" fill-rule="evenodd" d="M21.1 5.428C22.43 3.99 23.326 1.99 23.08 0c-1.916.068-4.233 1.141-5.607 2.576-1.234 1.273-2.31 3.308-2.021 5.26 2.137.147 4.318-.97 5.648-2.408Zm4.792 12.635c.054 5.146 5.053 6.857 5.108 6.88-.04.12-.798 2.438-2.633 4.835-1.588 2.071-3.234 4.133-5.829 4.178-2.548.042-3.369-1.35-6.284-1.35-2.914 0-3.824 1.305-6.236 1.392-2.504.083-4.413-2.24-6.012-4.304-3.27-4.221-5.77-11.929-2.413-17.13C3.26 9.98 6.238 8.343 9.472 8.302c2.458-.043 4.78 1.477 6.282 1.477 1.503 0 4.324-1.827 7.29-1.559 1.24.046 4.725.447 6.962 3.373-.18.1-4.158 2.168-4.114 6.469Z" clip-rule="evenodd"/></svg>