<svg xmlns="http://www.w3.org/2000/svg" width="31" height="35" fill="none"><path fill="#3A9BC8" d="M15.372 17.442.955 33.07l-.44.48a2.924 2.924 0 0 1-.497-1.417A2.293 2.293 0 0 1 0 31.847V3.031c0-.646.196-1.227.516-1.702l14.856 16.113Z"/><path fill="#9BCD83" d="m21.854 10.409-6.482 7.033L.516 1.33C1.358.096 3.078-.432 4.536.41l17.317 9.999Z"/><path fill="#EEB84C" d="M30.998 17.525a2.985 2.985 0 0 1-1.506 2.532l-7.638 4.413-6.482-7.028 6.482-7.033 4.803 2.775 2.835 1.637a2.975 2.975 0 0 1 1.506 2.704Z"/><path fill="#B43F70" d="M.517 33.548c.843 1.234 2.561 1.76 4.018.92L21.85 24.47l-6.482-7.03L.517 33.547Z"/><path fill="#fff" d="M30.93 16.788a2.964 2.964 0 0 0-1.438-1.967l-2.835-1.637-4.803-2.775L4.537.41C3.077-.432 1.358.096.516 1.33A3.024 3.024 0 0 0 0 3.03v16.602a89.908 89.908 0 0 0 17.218-.188l-1.84-1.996 1.841 1.996c4.85-.518 9.454-1.424 13.712-2.657Z" opacity=".2"/></svg>