<svg xmlns="http://www.w3.org/2000/svg" width="50" height="50" fill="none"><path fill="#BB2A2F" fill-rule="evenodd" d="M15.7 50h18.604c.963 0 1.744-.82 1.744-1.83 0-1.009-.781-1.829-1.744-1.829H15.7c-.962 0-1.744.82-1.744 1.83 0 1.01.782 1.829 1.745 1.829ZM1.745 30.488h41.86c.963 0 1.745-.82 1.745-1.83 0-1.01-.782-1.829-1.745-1.829H1.746c-.963 0-1.744.82-1.744 1.83 0 1.01.781 1.829 1.744 1.829Z" clip-rule="evenodd"/><path fill="#BB2A2F" fill-rule="evenodd" d="M50.002 11.585C50.002 5.187 45.056 0 38.955 0H11.048C4.948 0 .002 5.187.002 11.585v19.513c0 6.398 4.946 11.585 11.046 11.585h27.907c6.101 0 11.047-5.187 11.047-11.585V11.585Zm-3.489 0v19.512c0 4.378-3.383 7.927-7.558 7.927H11.048c-4.174 0-7.558-3.549-7.558-7.926V11.585c0-4.378 3.384-7.926 7.558-7.926h27.907c4.175 0 7.558 3.548 7.559 7.926ZM25.003 32.713c1.019 0 1.846.868 1.846 1.936 0 1.069-.827 1.936-1.846 1.936-1.019 0-1.846-.867-1.846-1.936 0-1.068.827-1.936 1.846-1.936Z" clip-rule="evenodd"/></svg>