<svg xmlns="http://www.w3.org/2000/svg" width="45" height="45" fill="none"><path fill="#BB2A2F" d="M5 0h35a5 5 0 0 1 5 5v35a5 5 0 0 1-5 5H5a5 5 0 0 1-5-5V5a5 5 0 0 1 5-5Zm31.775 15.825A11.925 11.925 0 0 0 40 12.3c-1.133.544-2.35.891-3.6 1.025a7.3 7.3 0 0 0 2.8-3.675 14.049 14.049 0 0 1-4.2 1.6 6.8 6.8 0 0 0-11.575 6.25 19.124 19.124 0 0 1-13.8-7.1 7.175 7.175 0 0 0 1.975 8.95 7.35 7.35 0 0 1-2.85-.825 6.7 6.7 0 0 0 5.2 6.7 8.376 8.376 0 0 1-2.85 0A6.675 6.675 0 0 0 17.25 30a13.45 13.45 0 0 1-9.75 2.7 17.5 17.5 0 0 0 10.7 3.075c11.025-.5 18.4-8.275 18.575-19.95Z"/></svg>