<svg xmlns="http://www.w3.org/2000/svg" width="50" height="50" fill="none"><path fill="#BB2A2F" d="M.002 24.188v-.07C.629 15.915 3.559 9.762 8.649 5.872c5.02-3.96 10.46-5.87 16.387-5.87 6.206-.07 11.994 2.05 17.156 6.293 5.23 4.173 7.81 10.396 7.81 18.457v.495c0 8.134-2.58 14.214-7.81 18.387C36.962 47.877 31.172 50 24.967 50h-.279c-6.067-.07-11.646-2.193-16.805-6.436C2.722 39.391.073 32.955.004 24.186l-.002.002Zm23.5-11.102V1.912h-1.674c-.348.425-.627.918-.906 1.344-.28.425-.558.848-.837 1.344-.28.426-.627.991-.837 1.414a8.182 8.182 0 0 0-.698 1.345c-.42.708-.768 1.414-1.047 2.05a14.04 14.04 0 0 0-.837 1.84c.42.283.906.636 1.464.848.627.213 1.256.426 1.883.566.699.143 1.326.213 1.884.283.627.07 1.185.143 1.604.143v-.003Zm2.93-11.172v11.102c.347 0 .767.07 1.184 0 .42 0 .906-.07 1.325-.143a23.514 23.514 0 0 0 2.373-.565c.767-.283 1.463-.636 1.952-1.062-.837-2.05-1.743-3.677-2.651-5.234a20.288 20.288 0 0 0-3.068-4.03v-.07H26.43v.002ZM18.9 2.55v-.07c-.489.212-.977.565-1.535.778-.489.213-1.116.496-1.605.779a31.492 31.492 0 0 0-2.93 1.697 25.423 25.423 0 0 0-2.58 2.05c.28.283.628.566.907.779.279.212.627.495.977.778.28.143.627.353.978.636.348.213.767.495 1.184.778.558-1.274 1.116-2.616 1.815-3.82a33.917 33.917 0 0 1 2.231-3.537c.07-.142.14-.282.279-.425.07-.07.14-.28.279-.423Zm21.337 5.232v-.07c-1.743-1.345-3.278-2.476-4.811-3.182s-3.068-1.414-4.463-1.98a14.471 14.471 0 0 1 2.72 3.89c.699 1.414 1.395 2.899 1.953 4.313.279-.143.627-.283 1.046-.566.348-.212.837-.425 1.257-.636.42-.282.767-.565 1.184-.848.42-.353.837-.636 1.116-.919l-.002-.002Zm-1.185 15.77h8.02c0-2.616-.558-5.091-1.605-7.637-.977-2.476-2.371-4.526-4.114-6.293v-.07a5.093 5.093 0 0 1-1.326 1.414c-.558.353-1.046.636-1.604.919-.348.212-.699.495-1.047.636-.348.212-.837.352-1.185.565.28.566.558 1.202.837 1.768.21.636.558 1.344.699 1.98.42 1.131.698 2.333.977 3.537.21 1.061.348 2.193.348 3.181ZM13.81 13.086v-.07c-.558-.283-1.185-.495-1.674-.778-.488-.353-.977-.709-1.394-.992a6.869 6.869 0 0 1-1.185-.778 10.866 10.866 0 0 1-.906-.849c-1.814 1.768-3.138 3.748-3.974 6.083-.906 2.333-1.536 4.952-1.814 7.78h8.577c0-1.98.28-3.89.768-5.8a19.083 19.083 0 0 1 1.602-4.596Zm9.691 10.396V15.35c-.558.07-1.256.07-1.883 0-.699-.07-1.395-.283-2.022-.495-.558-.143-1.256-.283-1.814-.496a6.476 6.476 0 0 1-1.743-.708c-.42.708-.767 1.557-1.046 2.475-.348.849-.558 1.768-.768 2.616-.14.85-.21 1.768-.279 2.546-.069.779-.14 1.557-.14 2.193h9.693l.002.002Zm2.93-7.99v7.99h10.32c0-.425 0-.918-.069-1.484-.14-.496-.21-1.132-.279-1.697-.21-.849-.42-1.768-.698-2.616-.279-.779-.558-1.557-.906-2.193-.14-.353-.279-.779-.42-1.062-.21-.353-.419-.565-.557-.778-.768.566-1.815.919-3.069 1.202-1.184.283-2.58.565-3.835.636h-.49l.003.002ZM11.438 25.815H2.86c0 1.202.21 2.546.558 4.173.348 1.698 1.047 3.255 1.814 4.952.348.849.768 1.697 1.185 2.546a48.43 48.43 0 0 0 1.605 2.405c.42-.283.836-.495 1.185-.708.42-.213.905-.496 1.325-.708.489-.213.977-.426 1.535-.709.489-.212 1.116-.495 1.743-.778-.558-1.767-1.185-3.465-1.604-5.375-.49-1.84-.768-3.677-.768-5.727v-.07Zm12.063 8.274v-8.273h-9.693c0 .565.069 1.414.21 2.262.069.85.278 1.768.42 2.689.278.991.488 1.98.767 2.829.279.848.557 1.557.836 2.193a28.506 28.506 0 0 1 3.348-1.062c.906-.283 1.742-.495 2.58-.566h.767c.279-.07.558-.07.767-.07l-.002-.002Zm2.93-8.273v8.203c.489.07 1.047.142 1.604.212.628.07 1.395.213 2.022.354l1.047.212c.348.143.767.213 1.115.283.42.143.837.213 1.257.353.348.143.698.213.977.353.906-2.333 1.464-4.243 1.814-5.87.348-1.557.489-2.899.489-4.03v-.07H26.431Zm20.64.07v-.07h-8.019v.425c-.069 1.344-.279 2.899-.558 4.526-.279 1.557-.906 3.394-1.742 5.657 1.115.566 2.162 1.132 2.999 1.698a14.706 14.706 0 0 1 2.162 1.767c1.185-1.202 2.231-2.829 3.137-4.951a25.3 25.3 0 0 0 1.884-6.436c.069-.426.069-.849.14-1.274v-1.345l-.002.003Zm-23.57 21.498V36.352a49.49 49.49 0 0 0-4.324.919c-1.116.283-1.953.566-2.51.848.419 1.062.836 1.98 1.256 2.83.42.778.905 1.626 1.325 2.332.14.283.42.566.627.919.21.283.348.636.558.919.21.353.42.778.627 1.201.279.353.489.779.768 1.062l1.673.002Zm2.93 0h1.604c.628-.496 1.257-1.202 1.743-1.98.558-.779 1.185-1.697 1.605-2.476.488-.919.977-1.767 1.394-2.616.418-.848.768-1.627 1.047-2.193-.768-.282-1.814-.565-2.859-.848-1.044-.283-2.51-.566-4.532-.849v10.962h-.002Zm13.806-5.798v-.07c-.14-.213-.42-.495-.627-.708a5.076 5.076 0 0 0-.906-.709 6.638 6.638 0 0 0-1.047-.635c-.419-.21-.977-.496-1.463-.779-.28.566-.768 1.557-1.464 2.899-.627 1.344-1.743 2.971-3.138 4.739 1.743-.283 3.278-.92 4.673-1.768 1.535-.778 2.858-1.84 3.974-2.971l-.002.002Zm-25.94-2.263v-.07c-.49.283-1.257.636-2.022.991-.837.353-1.743.779-2.58 1.345.489.425.978.848 1.395 1.131.42.353.906.636 1.325.919.768.495 1.674.99 2.58 1.414.906.423 2.022.849 3.416 1.274-.488-.566-.837-1.274-1.185-1.84-.348-.565-.767-1.131-1.115-1.697-.349-.566-.627-1.201-.906-1.767-.348-.566-.627-1.132-.906-1.698l-.002-.002Z"/></svg>