<svg xmlns="http://www.w3.org/2000/svg" width="50" height="50" fill="none"><path fill="#BB2A2F" fill-rule="evenodd" d="M6.767 0C3.031 0 .002 3.053.002 6.818V38.636c0 3.766 3.029 6.819 6.765 6.819h6.766a2.264 2.264 0 0 0 2.255-2.273 2.264 2.264 0 0 0-2.255-2.273H6.767a2.264 2.264 0 0 1-2.255-2.273V15.91a2.264 2.264 0 0 1 2.255-2.273h36.308c1.121 0 2.03.916 2.03 2.046v.227a2.264 2.264 0 0 0 2.255 2.273 2.264 2.264 0 0 0 2.255-2.273v-.227c0-3.64-2.928-6.591-6.54-6.591H24.314l-.974-3.926C22.587 2.129 19.881 0 16.777 0H6.767Zm0 9.09c-.79 0-1.55.138-2.255.389v-2.66a2.264 2.264 0 0 1 2.255-2.274h10.01c1.034 0 1.936.71 2.187 1.722l.7 2.824H6.768Zm40.866 12.972a6.728 6.728 0 0 0-9.567 0l-3.789 3.817-11.063 11.15c-.29.292-.494.656-.593 1.056l-2.255 9.091a2.284 2.284 0 0 0 .593 2.158c.56.565 1.373.792 2.141.598l9.02-2.273c.397-.1.76-.306 1.048-.597l10.934-11.02 3.918-3.948c2.642-2.663 2.642-6.98 0-9.642l-.387-.39Zm-6.378 3.214a2.243 2.243 0 0 1 3.189 0l.387.39c.88.887.88 2.326 0 3.214l-2.292 2.31-3.508-3.673 2.224-2.241Zm-5.414 5.456 3.508 3.673-8.928 8.997-4.768 1.202 1.192-4.806 8.996-9.066Z" clip-rule="evenodd"/></svg>