<svg xmlns="http://www.w3.org/2000/svg" width="50" height="50" fill="none"><path fill="#BB2A2F" d="M40.87 28.56v-7.12l4.085-3.954a20.536 20.536 0 0 0-3.259-5.45l-5.573 1.446-6.374-3.56-1.495-5.4a22.324 22.324 0 0 0-6.507 0l-1.495 5.4-6.374 3.56-5.573-1.446a20.571 20.571 0 0 0-3.263 5.45l4.086 3.953v7.122l-4.086 3.953a20.527 20.527 0 0 0 3.263 5.45l5.573-1.446 6.374 3.56 1.495 5.4c2.157.318 4.35.318 6.507 0l1.495-5.4 6.374-3.56 5.573 1.446a20.462 20.462 0 0 0 3.26-5.45l-4.087-3.953Zm2.291 14.222-6.414-1.664-3.197 1.786-1.72 6.214a26.872 26.872 0 0 1-13.66 0l-1.723-6.214-3.196-1.786-6.411 1.664C3.538 39.63 1.176 35.674 0 31.332L4.7 26.786v-3.572L0 18.668c1.175-4.343 3.537-8.3 6.84-11.454l6.41 1.665 3.197-1.786L18.17.879A26.678 26.678 0 0 1 24.999 0c2.366 0 4.658.307 6.831.882l1.72 6.214 3.197 1.786 6.414-1.664c3.248 3.107 5.647 7.04 6.84 11.45l-4.703 4.546v3.572l4.703 4.546c-1.175 4.342-3.538 8.297-6.84 11.45ZM25.002 31.43c.873 0 1.737-.167 2.543-.49a6.662 6.662 0 0 0 2.155-1.393 6.42 6.42 0 0 0 1.44-2.086 6.25 6.25 0 0 0 0-4.92 6.42 6.42 0 0 0-1.44-2.086 6.664 6.664 0 0 0-2.155-1.393 6.836 6.836 0 0 0-2.543-.49 6.758 6.758 0 0 0-4.697 1.883A6.325 6.325 0 0 0 18.359 25c0 1.705.7 3.34 1.946 4.546a6.758 6.758 0 0 0 4.697 1.883Zm0 4.285c-2.936 0-5.753-1.128-7.83-3.138-2.076-2.01-3.242-4.734-3.242-7.576 0-2.842 1.166-5.567 3.243-7.576 2.076-2.01 4.893-3.138 7.83-3.138 2.936 0 5.752 1.129 7.829 3.138 2.076 2.01 3.243 4.734 3.243 7.576 0 2.842-1.167 5.567-3.243 7.576-2.077 2.01-4.893 3.138-7.83 3.138Z"/></svg>