<svg xmlns="http://www.w3.org/2000/svg" width="50" height="50" fill="none"><path fill="#BB2A2F" fill-rule="evenodd" d="M25 0C11.196 0 .002 11.476.002 25.634c0 11.323 7.162 20.931 17.097 24.322 1.25.235 1.706-.557 1.706-1.237 0-.609-.021-2.22-.034-4.358-6.953 1.548-8.42-3.437-8.42-3.437-1.138-2.961-2.777-3.75-2.777-3.75-2.27-1.59.172-1.558.172-1.558 2.51.181 3.83 2.642 3.83 2.642 2.23 3.917 5.851 2.785 7.275 2.13.227-1.656.874-2.786 1.587-3.426-5.55-.649-11.387-2.847-11.387-12.67 0-2.799.974-5.085 2.573-6.877-.258-.648-1.115-3.254.246-6.784 0 0 2.098-.69 6.874 2.626 1.994-.568 4.133-.851 6.259-.862 2.124.011 4.262.294 6.258.862 4.773-3.315 6.868-2.626 6.868-2.626 1.365 3.53.507 6.136.25 6.784 1.603 1.792 2.57 4.079 2.57 6.878 0 9.847-5.846 12.014-11.414 12.648.896.792 1.695 2.356 1.695 4.748 0 3.425-.03 6.19-.03 7.03 0 .687.451 1.484 1.719 1.234 9.927-3.397 17.083-12.998 17.083-24.32C50.002 11.477 38.807 0 24.999 0Z" clip-rule="evenodd"/></svg>